<svg version="1.2" xmlns="http://www.w3.org/2000/svg" viewBox="0 0 512 512" width="512" height="512">
 <defs>
  <symbol id="duck-shape" viewBox="0 0 512 512">
   <path fill="#f39c12" d="M160.13,204.58,49.66,173.11a34.37,34.37,0,0,1-24.34-26.68h0l111.61-21Z"/>
   <path fill="#f39c12" d="M133,63.25,15.28,122.11a13.5,13.5,0,0,0-7.45,12.07h0a13.49,13.49,0,0,0,13.49,13.49h103.3Z"/>
   <path fill="#ffcd69" d="M504.81,269.79A36.72,36.72,0,0,0,491,241.42l-.19-.15a36.79,36.79,0,0,0-47.3,1.15c-19.27,16.93-48.87,38-78.69,40.37-.67,0-1.33.1-2,.13-34,1.72-54.79-37.25-34.84-64.86a132.2,132.2,0,0,0,25.09-78C353,67.45,293.82,8,221.25,7.5A132.91,132.91,0,0,0,96.11,187.63a43.22,43.22,0,0,1-5,40.74C62.54,267.94,37.07,321,47.94,376c8.51,43.06,30.3,72,53.81,91.39,29.53,24.31,66.87,37.11,105.12,37.11h121.5c69.62,0,132.46-42.94,156.52-108.27C502.75,347.72,505,296.18,504.81,269.79Z"/>
   <path fill="#f39c12" d="M277.24,310c34.55,19.41,80.67,38.07,120,29.13A23,23,0,0,1,423,351.67h0a23.14,23.14,0,0,1-.85,21.67c-18,30.89-78.25,112-197.46,67.63-59.82-22.26-70.38-54.19-62-84.09C176.27,307.88,232.9,285.08,277.24,310Z"/>
   <rect width="30" height="50" x="161.87" y="80.85" fill="#e74c3c" rx="15" ry="15" transform="rotate(10 176.842 105.866)"/>
   <path fill="#a56d6b" d="M512.31,269.73h0a44,44,0,0,0-16.57-34.15l-.2-.17a44.25,44.25,0,0,0-56.94,1.38c-18.64,16.37-46.68,36.34-74.34,38.52l-1.75.12a32.28,32.28,0,0,1-30.57-17.29,33.28,33.28,0,0,1,2.19-35.68A139.32,139.32,0,0,0,360.64,140C360.46,63.35,298,.54,221.3,0h-1A139.39,139.39,0,0,0,121.4,40.76a140.89,140.89,0,0,0-24.17,32L11.93,115.4a21,21,0,0,0,8.12,39.7A41.81,41.81,0,0,0,47.6,180.32l42.21,12A35.6,35.6,0,0,1,85,224C68,247.49,55.47,271,47.63,294c-9.9,29-12.27,57.06-7.05,83.49,7.72,39.07,26.7,71.28,56.4,95.72,30.42,25,69.44,38.82,109.89,38.82h121.5A174.76,174.76,0,0,0,428,481a171.36,171.36,0,0,0,63.95-82.22C510.19,349.21,512.54,296.65,512.31,269.73Zm-497-135.55a6,6,0,0,1,3.31-5.36l69-34.5A140.38,140.38,0,0,0,80,140.17H21.32A6,6,0,0,1,15.33,134.18Zm21.58,21H80.72a139.55,139.55,0,0,0,3.58,20l-32.58-9.29A26.71,26.71,0,0,1,36.91,155.17ZM477.85,393.63C455.08,455.46,395,497,328.37,497H206.87c-37,0-72.62-12.57-100.36-35.4-26.95-22.18-44.18-51.47-51.21-87.05C44.57,320.24,72.13,267.46,97.15,232.76a50.68,50.68,0,0,0,6-47.8A125.38,125.38,0,0,1,220.29,15h.91c68.45.48,124.28,56.58,124.44,125A124.36,124.36,0,0,1,322,213.67a48.17,48.17,0,0,0-3.21,51.63,47.61,47.61,0,0,0,44.5,25.11c.72,0,1.45-.08,2.19-.14,31.76-2.51,62.69-24.34,83.05-42.21a29.28,29.28,0,0,1,37.66-.95l.2.17a29.08,29.08,0,0,1,10.95,22.58h0C497.53,295.75,495.29,346.26,477.85,393.63Z"/>
   <path fill="#a56d6b" d="M395.59,331.81a88.72,88.72,0,0,1-19.75,2.11c-33,0-68.8-15.78-94.92-30.46A86.39,86.39,0,0,0,205,299a84.85,84.85,0,0,0-49.62,55.86c-7.87,28.24-2.69,67.32,66.65,93.13q36.33,13.51,69.27,13.51a145.35,145.35,0,0,0,73.8-19.64c33.85-19.53,54.31-49,63.49-64.76a30.6,30.6,0,0,0-33-45.3Zm20.06,37.76c-19.32,33.24-76.35,106-188.36,64.37-26.15-9.73-43.93-21.89-52.84-36.13-7.19-11.49-8.7-24.22-4.6-38.92a70,70,0,0,1,40.92-46,71.54,71.54,0,0,1,62.8,3.67C301.39,332.17,339.65,348.9,376,348.9a103,103,0,0,0,22.89-2.46,15.61,15.61,0,0,1,16.74,23.13Z"/>
   <path fill="#a56d6b" d="M171.22,137.86a22.82,22.82,0,0,0,3.92.34,22.53,22.53,0,0,0,22.15-18.59l3.47-19.7a22.5,22.5,0,1,0-44.31-7.81L153,111.79a22.52,22.52,0,0,0,18.25,26.07Zm-3.48-23.46,3.48-19.7A7.5,7.5,0,1,1,186,97.31L182.52,117a7.5,7.5,0,0,1-8.69,6.08h0A7.38,7.38,0,0,1,169,120,7.48,7.48,0,0,1,167.74,114.4Z"/>
  </symbol>
 </defs>
 <style>
  .s0 { fill: #3e3d42;stroke: #ffffff;paint-order:stroke fill markers;stroke-linejoin: round;stroke-width: 30 } 
  .s1 { fill: #d8d7da } 
  .s2 { display: none;fill: #d8d7da } 
  .s3 { display: none;fill: #3e3d42 } 
  .s4 { fill: #000000 } 
  .s5 { fill: #000000;stroke: #ffffff;paint-order:stroke fill markers;stroke-linejoin: round;stroke-width: 8 } 
  .s6 { display: none;fill: #000000 } 
 </style>
 <path class="s0" d="m184 496h144c5.25 0 10.45-1.03 15.31-3.04 4.85-2.02 9.26-4.96 12.97-8.68 3.72-3.71 6.66-8.12 8.68-12.97 2.01-4.86 3.04-10.06 3.04-15.31v-344h-224v344c0 5.25 1.03 10.45 3.04 15.31 2.02 4.85 4.96 9.26 8.68 12.97 3.71 3.72 8.12 6.66 12.97 8.68 4.86 2.01 10.06 3.04 15.31 3.04z"/>
 <path fill-rule="evenodd" class="s1" d="m320 16v96h-128v-96z"/>
 <path class="s2" d="m168.02 282.07c0.15 6.3 0.96 12.56 2.44 18.67 1.48 6.12 3.62 12.06 6.37 17.72 2.75 5.66 6.1 11.01 10 15.96 3.89 4.94 8.31 9.45 13.17 13.45v16.13c0 1.58 0.31 3.14 0.91 4.59 0.61 1.46 1.49 2.78 2.6 3.9 1.12 1.11 2.44 1.99 3.9 2.6 1.45 0.6 3.01 0.91 4.59 0.91h88c1.58 0 3.14-0.31 4.59-0.91 1.46-0.61 2.78-1.49 3.9-2.6 1.11-1.12 1.99-2.44 2.6-3.9 0.6-1.45 0.91-3.01 0.91-4.59v-16.13c14.06-11.6 24.17-27.28 28.94-44.87 4.76-17.59 3.95-36.23-2.33-53.34-6.29-17.11-17.73-31.85-32.75-42.17-15.02-10.33-32.87-15.74-51.1-15.48-48.68 0.67-87.86 41.39-86.74 90.06z"/>
 <path fill-rule="evenodd" class="s3" d="m216 256c8.85 0 16 7.15 16 16 0 8.85-7.15 16-16 16-8.85 0-16-7.15-16-16 0-8.85 7.15-16 16-16z"/>
 <g>
  <path class="s4" d="m144 104h40v-88q0-1.59 0.61-3.06 0.61-1.47 1.73-2.6 1.13-1.12 2.6-1.73 1.47-0.61 3.06-0.61h128q1.59 0 3.06 0.61 1.47 0.61 2.6 1.73 1.12 1.13 1.73 2.6 0.61 1.47 0.61 3.06v88h40q1.59 0 3.06 0.61 1.47 0.61 2.6 1.73 1.12 1.13 1.73 2.6 0.61 1.47 0.61 3.06v344c-0.01 6.3-1.25 12.54-3.67 18.36-2.41 5.82-5.95 11.11-10.4 15.57-4.46 4.45-9.75 7.99-15.57 10.4-5.82 2.42-12.06 3.66-18.36 3.67h-144c-6.3-0.01-12.54-1.25-18.36-3.67-5.82-2.41-11.11-5.95-15.57-10.4-4.45-4.46-7.99-9.75-10.4-15.57-2.42-5.82-3.66-12.06-3.67-18.36v-344q0-1.59 0.61-3.06 0.61-1.47 1.73-2.6 1.13-1.12 2.6-1.73 1.47-0.61 3.06-0.61zm168-80h-112v80h112zm-160 432c0 4.2 0.83 8.36 2.44 12.24 1.61 3.88 3.97 7.41 6.94 10.38 2.97 2.97 6.5 5.33 10.38 6.94 3.88 1.61 8.04 2.44 12.24 2.44h144c4.2 0 8.36-0.83 12.24-2.44 3.88-1.61 7.41-3.97 10.38-6.94 2.97-2.97 5.33-6.5 6.94-10.38 1.61-3.88 2.44-8.04 2.44-12.24v-336h-208z"/>
  <path class="s4" d="m256 40q1.59 0 3.06 0.61 1.47 0.61 2.6 1.73 1.12 1.13 1.73 2.6 0.61 1.47 0.61 3.06v32c0 2.12-0.84 4.16-2.34 5.66-1.5 1.5-3.54 2.34-5.66 2.34-2.12 0-4.16-0.84-5.66-2.34-1.5-1.5-2.34-3.54-2.34-5.66v-32q0-1.59 0.61-3.06 0.61-1.47 1.73-2.6 1.13-1.12 2.6-1.73 1.47-0.61 3.06-0.61z"/>
  <path class="s4" d="m288 40q1.59 0 3.06 0.61 1.47 0.61 2.6 1.73 1.12 1.13 1.73 2.6 0.61 1.47 0.61 3.06v32c0 2.12-0.84 4.16-2.34 5.66-1.5 1.5-3.54 2.34-5.66 2.34-2.12 0-4.16-0.84-5.66-2.34-1.5-1.5-2.34-3.54-2.34-5.66v-32q0-1.59 0.61-3.06 0.61-1.47 1.73-2.6 1.13-1.12 2.6-1.73 1.47-0.61 3.06-0.61z"/>
  <path class="s4" d="m224 40q1.59 0 3.06 0.61 1.47 0.61 2.6 1.73 1.12 1.13 1.73 2.6 0.61 1.47 0.61 3.06v32c0 2.12-0.84 4.16-2.34 5.66-1.5 1.5-3.54 2.34-5.66 2.34-2.12 0-4.16-0.84-5.66-2.34-1.5-1.5-2.34-3.54-2.34-5.66v-32q0-1.59 0.61-3.06 0.61-1.47 1.73-2.6 1.13-1.12 2.6-1.73 1.47-0.61 3.06-0.61z"/>
  <path class="s5" d="m216 289c-9.71 0-18.46-5.85-22.17-14.82-3.72-8.96-1.66-19.29 5.2-26.15 6.86-6.86 17.19-8.92 26.15-5.2 8.97 3.71 14.82 12.46 14.82 22.17 0 3.15-0.63 6.27-1.83 9.18-1.21 2.91-2.98 5.55-5.21 7.78-2.23 2.23-4.87 4-7.78 5.21-2.91 1.2-6.03 1.83-9.18 1.83zm0-32c-3.24 0-6.15 1.95-7.39 4.94-1.24 2.99-0.55 6.43 1.73 8.72 2.29 2.28 5.73 2.97 8.72 1.73 2.99-1.24 4.94-4.15 4.94-7.39q0-1.59-0.61-3.06-0.61-1.47-1.74-2.59-1.12-1.13-2.59-1.74-1.47-0.61-3.06-0.61z"/>
  <use id="duck" href="#duck-shape" transform="matrix(-0.392 0 0 0.392 357 226)"/>
  <path class="s6" d="m264 304v8c0 2.12-0.84 4.16-2.34 5.66-1.5 1.5-3.54 2.34-5.66 2.34-2.12 0-4.16-0.84-5.66-2.34-1.5-1.5-2.34-3.54-2.34-5.66v-8c0-2.12 0.84-4.16 2.34-5.66 1.5-1.5 3.54-2.34 5.66-2.34 2.12 0 4.16 0.84 5.66 2.34 1.5 1.5 2.34 3.54 2.34 5.66z"/>
 </g>
</svg>
